<svg width="120" height="88" viewBox="0 0 120 88" fill="none" xmlns="http://www.w3.org/2000/svg">
<rect x="16.5" y="31.5" width="82" height="24" rx="12" fill="#FFC774" stroke="#FFC774"/>
<rect x="0.5" y="21.5" width="114" height="45" rx="15.5" stroke="#F7F8FA"/>
<rect x="9.5" y="26.5" width="97" height="34" rx="14.5" stroke="#EAEAEA"/>
<path d="M65.1078 52.9493C65.0771 52.1255 65.9993 51.6197 66.6762 52.089L82.2486 62.8842C82.99 63.3981 82.7251 64.5547 81.8339 64.6949L75.7806 65.6472C74.172 65.9003 72.7017 66.7068 71.6229 67.9278L67.5633 72.5226C66.9656 73.199 65.8493 72.8001 65.8156 71.898L65.1078 52.9493Z" stroke="#0D0F5A" stroke-opacity="0.5" stroke-width="2"/>
<path opacity="0.7" d="M33.87 46.42C33.3833 46.8933 32.7767 47.13 32.05 47.13C31.3233 47.13 30.7167 46.8933 30.23 46.42C29.7433 45.9467 29.5 45.3467 29.5 44.62C29.5 43.8933 29.74 43.2967 30.22 42.83C30.7067 42.3633 31.3167 42.13 32.05 42.13C32.7833 42.13 33.3933 42.3633 33.88 42.83C34.3667 43.2967 34.61 43.8933 34.61 44.62C34.61 45.3467 34.3633 45.9467 33.87 46.42ZM30.89 45.84C31.1767 46.1733 31.5633 46.34 32.05 46.34C32.5367 46.34 32.92 46.1733 33.2 45.84C33.4867 45.5 33.63 45.0933 33.63 44.62C33.63 44.1467 33.4867 43.7433 33.2 43.41C32.92 43.0767 32.5367 42.91 32.05 42.91C31.5633 42.91 31.1767 43.0767 30.89 43.41C30.61 43.7433 30.47 44.1467 30.47 44.62C30.47 45.0933 30.61 45.5 30.89 45.84ZM37.7963 47V43.03H36.1863V42.26H40.3463V43.03H38.7363V47H37.7963ZM42.3569 47V42.26H46.5569V47H45.6169V43.03H43.2969V47H42.3569ZM49.1772 49.4V42.26H50.0972V43H50.1272C50.2872 42.74 50.5172 42.53 50.8172 42.37C51.1172 42.21 51.4572 42.13 51.8372 42.13C52.5305 42.13 53.0972 42.37 53.5372 42.85C53.9839 43.3233 54.2072 43.9133 54.2072 44.62C54.2072 45.3333 53.9872 45.93 53.5472 46.41C53.1072 46.89 52.5305 47.13 51.8172 47.13C51.4772 47.13 51.1572 47.0567 50.8572 46.91C50.5572 46.7567 50.3205 46.55 50.1472 46.29H50.1172V49.4H49.1772ZM51.6572 46.34C52.1505 46.34 52.5372 46.1733 52.8172 45.84C53.0972 45.5 53.2372 45.0933 53.2372 44.62C53.2372 44.1467 53.0972 43.7433 52.8172 43.41C52.5372 43.0767 52.1505 42.91 51.6572 42.91C51.1905 42.91 50.8072 43.08 50.5072 43.42C50.2072 43.76 50.0572 44.1633 50.0572 44.63C50.0572 45.0967 50.2072 45.5 50.5072 45.84C50.8072 46.1733 51.1905 46.34 51.6572 46.34ZM57.8851 47.12C57.6851 47.12 57.4884 47.0933 57.2951 47.04C57.1017 46.9867 56.9184 46.9067 56.7451 46.8C56.5717 46.6933 56.4317 46.5433 56.3251 46.35C56.2184 46.15 56.1651 45.92 56.1651 45.66C56.1651 45.3867 56.2284 45.15 56.3551 44.95C56.4884 44.7433 56.6551 44.5867 56.8551 44.48C57.0551 44.3667 57.3084 44.28 57.6151 44.22C57.9284 44.1533 58.2217 44.11 58.4951 44.09C58.7751 44.07 59.0984 44.06 59.4651 44.06V43.93C59.4651 43.59 59.3584 43.3333 59.1451 43.16C58.9384 42.98 58.6551 42.89 58.2951 42.89C57.7617 42.89 57.3117 43.0733 56.9451 43.44L56.4451 42.84C56.9384 42.3667 57.5851 42.13 58.3851 42.13C59.0384 42.13 59.5317 42.3033 59.8651 42.65C60.1984 42.99 60.3651 43.4367 60.3651 43.99V46.06C60.3651 46.4733 60.3884 46.7867 60.4351 47H59.5851C59.5317 46.7733 59.5051 46.5467 59.5051 46.32H59.4751C59.1217 46.8533 58.5917 47.12 57.8851 47.12ZM58.0951 46.38C58.5217 46.38 58.8551 46.2533 59.0951 46C59.3417 45.74 59.4651 45.4033 59.4651 44.99V44.74H59.2351C57.8284 44.74 57.1251 45.04 57.1251 45.64C57.1251 45.9 57.2184 46.09 57.4051 46.21C57.5917 46.3233 57.8217 46.38 58.0951 46.38ZM62.935 47V42.26H65.265C65.425 42.26 65.575 42.2733 65.715 42.3C65.8617 42.32 66.005 42.36 66.145 42.42C66.2917 42.4733 66.415 42.5467 66.515 42.64C66.6217 42.7267 66.705 42.8433 66.765 42.99C66.8317 43.1367 66.865 43.3033 66.865 43.49C66.865 43.7367 66.7883 43.9533 66.635 44.14C66.4883 44.32 66.2917 44.4367 66.045 44.49V44.51C66.3517 44.55 66.6017 44.6733 66.795 44.88C66.9883 45.08 67.085 45.3433 67.085 45.67C67.085 46.0833 66.9217 46.41 66.595 46.65C66.275 46.8833 65.845 47 65.305 47H62.935ZM63.875 46.25H65.155C65.8017 46.25 66.125 46.03 66.125 45.59C66.125 45.1433 65.8183 44.92 65.205 44.92H63.875V46.25ZM63.875 44.21H65.185C65.3983 44.21 65.5783 44.16 65.725 44.06C65.8717 43.96 65.945 43.8067 65.945 43.6C65.945 43.1933 65.6583 42.99 65.085 42.99H63.875V44.21ZM69.394 47V42.26H70.334V45.68H70.344L72.774 42.26H73.804V47H72.864V43.57H72.844L70.424 47H69.394ZM77.4194 47V43.03H75.8094V42.26H79.9694V43.03H78.3594V47H77.4194ZM81.9799 47V42.26H82.9199V43.98H83.9999C84.5866 43.98 85.0466 44.11 85.3799 44.37C85.7199 44.6233 85.8899 44.9967 85.8899 45.49C85.8899 45.9767 85.7233 46.35 85.3899 46.61C85.0566 46.87 84.5966 47 84.0099 47H81.9799ZM82.9199 46.25H83.8899C84.5899 46.25 84.9399 46 84.9399 45.5C84.9399 44.98 84.5899 44.72 83.8899 44.72H82.9199V46.25Z" fill="#232323"/>
</svg>
