<svg width="120" height="88" viewBox="0 0 120 88" fill="none" xmlns="http://www.w3.org/2000/svg">
<g clip-path="url(#clip0)">
<path d="M13.8338 44.3801C7.84264 36.4083 11.2274 24.9107 20.5952 21.413L52.5067 9.4977C57.3027 7.70694 62.6776 8.48427 66.757 11.5586L100.217 36.7745C109.668 43.897 107.441 58.6548 96.3008 62.7257L52.8575 78.6016C46.6595 80.8666 39.7154 78.8174 35.7616 73.5566L13.8338 44.3801Z" fill="white"/>
<path fill-rule="evenodd" clip-rule="evenodd" d="M53.2022 11.3627L21.2907 23.278C13.172 26.3094 10.2385 36.274 15.4309 43.1828L37.3586 72.3594C40.7852 76.9188 46.8035 78.6947 52.1751 76.7317L95.6184 60.8559C105.273 57.3277 107.203 44.5376 99.0121 38.3648L65.5525 13.1488C62.017 10.4844 57.3587 9.81076 53.2022 11.3627ZM20.5952 21.413C11.2274 24.9107 7.84264 36.4083 13.8338 44.3801L35.7616 73.5566C39.7154 78.8174 46.6595 80.8666 52.8575 78.6016L96.3008 62.7257C107.441 58.6548 109.668 43.897 100.217 36.7745L66.757 11.5586C62.6776 8.48427 57.3027 7.70694 52.5067 9.4977L20.5952 21.413Z" fill="#EAEAEA"/>
<path fill-rule="evenodd" clip-rule="evenodd" d="M53.0147 3.26769L10.0395 19.3102C1.2398 22.5951 -1.93571 33.404 3.69629 40.9015L33.336 80.3589C37.0527 85.3067 43.5777 87.2362 49.3999 85.1091L107.951 63.718C118.415 59.8949 120.501 46.0203 111.619 39.3199L66.404 5.21105C62.5701 2.3189 57.52 1.5859 53.0147 3.26769ZM9.68907 18.3706C0.260771 21.8902 -3.14156 33.4711 2.89273 41.5042L32.5324 80.9616C36.5146 86.2628 43.5056 88.3301 49.7438 86.0511L108.294 64.66C119.506 60.5638 121.742 45.6981 112.225 38.5191L67.0099 4.41031C62.9022 1.31158 57.4913 0.52623 52.6643 2.32814L9.68907 18.3706Z" fill="#F7F8FA"/>
<path d="M85.3453 35.4216L83.7471 36.6129C83.1276 36.3046 82.4847 36.0548 81.8226 35.8674L81.4504 33.9109C81.2904 33.0789 80.5568 32.4837 79.7092 32.5075L77.2448 32.5646C76.7817 32.5753 76.3517 32.7632 76.0326 33.0974C75.7822 33.3597 75.6243 33.6861 75.5747 34.043L75.2895 36.0189C74.6121 36.2456 73.9569 36.5338 73.3363 36.8875L71.7055 35.7835C71.0035 35.3074 70.0668 35.4078 69.4811 36.0212L67.7807 37.8024C67.1951 38.4158 67.1383 39.3563 67.6463 40.0354L68.8505 41.654C68.5462 42.2692 68.3006 42.9161 68.1175 43.5823L66.1691 43.9461C65.8148 44.0122 65.4921 44.1893 65.2417 44.4516C64.9226 44.7858 64.7508 45.2284 64.7656 45.6872L64.8187 48.1558C64.8383 48.9993 65.4629 49.7088 66.3014 49.8301L68.298 50.1189C68.5201 50.7756 68.8035 51.402 69.1443 52.0023L68.0403 53.6331C67.5642 54.335 67.6646 55.2718 68.278 55.8574L70.0592 57.5579C70.6726 58.1435 71.6131 58.2003 72.2922 57.6922L73.9108 56.488C74.526 56.7923 75.1729 57.038 75.8391 57.2211L76.2027 59.1612C76.3626 59.9932 77.0963 60.5885 77.9438 60.5647L80.4082 60.5075C80.8713 60.4968 81.3013 60.3089 81.6204 59.9747C81.8708 59.7124 82.0288 59.386 82.0784 59.0291L82.3672 57.0325C82.9994 56.8192 83.6094 56.5444 84.1935 56.2206L85.8412 57.3408C86.5431 57.8168 87.4799 57.7165 88.0656 57.103L89.77 55.3177C90.3557 54.7042 90.4125 53.7638 89.9044 53.0847L88.7131 51.4864C89.0214 50.867 89.2713 50.2241 89.4586 49.5619L91.4151 49.1897C91.7694 49.1236 92.0921 48.9465 92.3425 48.6842C92.6616 48.35 92.8293 47.9117 92.8186 47.4486L92.7614 44.9842C92.7419 44.1407 92.1173 43.4312 91.2788 43.31L89.3029 43.0248C89.0808 42.368 88.8055 41.7332 88.4689 41.137L89.5891 39.4893C90.0652 38.7873 89.9648 37.8505 89.3514 37.2649L87.5702 35.5645C86.9648 34.9704 86.0244 34.9136 85.3453 35.4216Z" fill="#0D0F5A" fill-opacity="0.5"/>
<path d="M74.1431 42.6601C71.857 45.0548 71.9452 48.857 74.3399 51.1431C76.7346 53.4293 80.5367 53.3411 82.8229 50.9464C85.109 48.5517 85.0208 44.7496 82.6261 42.4634C80.2314 40.1773 76.4293 40.2654 74.1431 42.6601Z" fill="white"/>
<path d="M53.4589 23.2189L51.0044 25.0485C50.0531 24.575 49.0658 24.1912 48.049 23.9035L47.4774 20.8989C47.2317 19.6212 46.105 18.7071 44.8034 18.7436L41.0189 18.8314C40.3077 18.8479 39.6473 19.1364 39.1572 19.6496C38.7727 20.0525 38.5302 20.5537 38.4539 21.1018L38.016 24.1362C36.9758 24.4843 35.9695 24.927 35.0164 25.4701L32.512 23.7746C31.434 23.0436 29.9954 23.1976 29.096 24.1397L26.4847 26.8751C25.5853 27.8172 25.498 29.2614 26.2783 30.3043L28.1276 32.7901C27.6603 33.7348 27.2831 34.7284 27.0018 35.7514L24.0096 36.31C23.4656 36.4116 22.97 36.6836 22.5854 37.0864C22.0954 37.5997 21.8316 38.2793 21.8543 38.984L21.9359 42.775C21.9659 44.0704 22.9251 45.16 24.2128 45.3462L27.2791 45.7897C27.6201 46.7983 28.0554 47.7603 28.5787 48.6821L26.8833 51.1865C26.1522 52.2645 26.3063 53.7031 27.2484 54.6025L29.9837 57.2138C30.9258 58.1132 32.37 58.2005 33.413 57.4202L35.8987 55.5709C36.8435 56.0382 37.837 56.4154 38.8601 56.6967L39.4184 59.6762C39.664 60.9538 40.7907 61.868 42.0923 61.8315L45.8769 61.7437C46.5881 61.7272 47.2485 61.4387 47.7385 60.9254C48.1231 60.5226 48.3656 60.0214 48.4418 59.4733L48.8853 56.407C49.8562 56.0795 50.793 55.6575 51.69 55.1602L54.2204 56.8805C55.2984 57.6115 56.737 57.4575 57.6364 56.5154L60.254 53.7735C61.1534 52.8314 61.2406 51.3872 60.4603 50.3443L58.6308 47.8898C59.1043 46.9386 59.4881 45.9513 59.7758 44.9344L62.7804 44.3628C63.3244 44.2612 63.82 43.9893 64.2046 43.5864C64.6946 43.0731 64.9522 42.4001 64.9357 41.6889L64.8479 37.9043C64.8179 36.6089 63.8587 35.5193 62.571 35.3332L59.5366 34.8953C59.1956 33.8866 58.7727 32.9117 58.2559 31.9961L59.9762 29.4656C60.7072 28.3877 60.5531 26.949 59.611 26.0496L56.8757 23.4383C55.946 22.5259 54.5018 22.4387 53.4589 23.2189Z" fill="#FFC774"/>
<path d="M36.56 34.1286C32.9402 37.9202 33.0798 43.9402 36.8714 47.56C40.6631 51.1797 46.6831 51.0401 50.3029 47.2485C53.9226 43.4569 53.783 37.4368 49.9914 33.8171C46.1998 30.1973 40.1797 30.3369 36.56 34.1286Z" fill="white"/>
</g>
<defs>
<clipPath id="clip0">
<rect width="120" height="88" fill="white"/>
</clipPath>
</defs>
</svg>
