<svg width="120" height="88" viewBox="0 0 120 88" fill="none" xmlns="http://www.w3.org/2000/svg">
<g clip-path="url(#clip0)">
<rect width="66.1804" height="35.1699" rx="4" transform="matrix(0.990616 0.136674 -0.140391 0.990096 6.20532 42.9351)" fill="#C9C9C9" stroke="#EAEAEA" stroke-width="3"/>
<rect width="55.9988" height="66.5715" transform="matrix(0.990616 0.136674 -0.140391 0.990096 16.3651 7.5625)" fill="#FFC774"/>
<path d="M5.73814 46.2298C5.94992 44.7362 7.67683 43.9999 8.89706 44.8828L33.472 62.6656C34.7684 63.6037 34.4837 65.6116 32.9761 66.1628L4.39799 76.6121C2.979 77.1309 1.52318 75.9554 1.73497 74.4618L5.73814 46.2298Z" fill="white"/>
<path d="M67.2964 83.5055C67.0846 84.9991 65.3577 85.7355 64.1375 84.8525L39.5625 67.0698C38.2661 66.1317 38.5509 64.1238 40.0584 63.5725L68.6365 53.1233C70.0555 52.6044 71.5114 53.7799 71.2996 55.2735L67.2964 83.5055Z" fill="white"/>
<path d="M3.28271 78.4559L36.9487 61.2513L64.5373 86.9071L3.28271 78.4559Z" fill="white" stroke="#EAEAEA" stroke-width="2"/>
</g>
<defs>
<clipPath id="clip0">
<rect width="120" height="88" fill="white"/>
</clipPath>
</defs>
</svg>
