<svg width="252" height="251" viewBox="0 0 252 251" fill="none" xmlns="http://www.w3.org/2000/svg">
<path opacity="0.5" d="M149.725 10.4697C261.894 -24.8835 381.559 37.1412 417.008 149.003C421.441 162.994 423.33 173.892 423.05 182.331C422.77 190.758 420.329 196.701 416.125 200.84C411.911 204.989 405.863 207.385 398.252 208.588C390.642 209.79 381.521 209.79 371.211 209.189C362.576 208.685 353.131 207.762 343.066 206.778C341.115 206.587 339.141 206.394 337.145 206.201C324.856 205.015 311.745 203.843 298.165 203.3C271.005 202.214 241.942 203.645 213.757 212.528C185.572 221.412 160.963 236.897 139.362 253.352C128.56 261.579 118.506 270.052 109.132 278.066C107.61 279.368 106.105 280.658 104.619 281.932C96.9485 288.506 89.7513 294.674 82.9751 300.035C74.8842 306.435 67.4191 311.663 60.4985 315.041C53.577 318.419 47.247 319.924 41.4073 318.944C35.5819 317.966 30.1594 314.501 25.0742 307.765C19.9824 301.02 15.2481 291.018 10.8145 277.027C-24.6339 165.165 37.5573 45.8229 149.725 10.4697Z" stroke="#FFC44D"/>
</svg>
