<svg width="720" height="448" viewBox="0 0 720 448" fill="none" xmlns="http://www.w3.org/2000/svg">
<path d="M360 448C312.721 448.065 265.896 438.792 222.211 420.711C178.526 402.63 138.843 376.099 105.44 342.64C71.9673 309.287 45.4196 269.644 27.3242 225.993C9.2287 182.342 -0.057415 135.543 2.06719e-05 88.29C2.06719e-05 63.83 2.39002 45.17 7.31002 31.29C12 18.07 18.83 9.32 28.29 4.48C36.91 0.0699973 47.77 -1.07 61.48 0.999997C73.14 2.75 87.11 6.82 105.48 13.81C119.06 19 133.8 25.28 149.41 32L151.57 32.92L158.72 35.97C176.63 43.59 197.6 52.39 219.87 60.42C272.77 79.43 317.3 88.31 360 88.31C402.7 88.31 447.24 79.43 500.13 60.37C522.43 52.37 543.39 43.53 561.28 35.92L568.15 33L570.51 32C586.15 25.33 600.92 19 614.51 13.82C632.85 6.82 646.82 2.76 658.51 1.01C672.23 -1.05 683.09 0.0899973 691.71 4.5C701.16 9.33 708.02 18.09 712.71 31.27C717.63 45.19 720.02 63.85 720.02 88.27C719.969 159.007 699.088 228.163 659.983 287.109C620.879 346.055 565.282 392.18 500.13 419.73C455.796 438.48 408.136 448.095 360 448ZM49.16 0.999997C41.16 0.999997 34.46 2.45 28.75 5.37C19.52 10.08 12.82 18.66 8.26002 31.58C3.37002 45.39 1.00002 63.94 1.00002 88.29C1.05101 158.826 21.8716 227.785 60.864 286.564C99.8564 345.342 155.294 391.337 220.26 418.81C286.065 446.628 358.675 454.172 428.793 440.478C498.912 426.783 563.347 392.473 613.85 341.94C647.233 308.68 673.709 269.147 691.755 225.616C709.801 182.084 719.06 135.414 719 88.29C719 63.94 716.63 45.4 711.74 31.58C707.18 18.65 700.48 10.08 691.26 5.37C682.83 1.06 672.17 -2.86102e-06 658.67 2C647.09 3.73 633.19 7.79 614.92 14.75C601.29 19.94 586.53 26.25 570.92 32.92L568.57 33.92L561.69 36.85C543.79 44.47 522.81 53.27 500.49 61.31C447.49 80.42 402.85 89.31 360.02 89.31C317.19 89.31 272.56 80.42 219.55 61.31C197.26 53.31 176.27 44.47 158.35 36.85L151.2 33.8L149.12 32.91C133.44 26.22 118.7 19.91 105.12 14.74C86.82 7.77 72.92 3.71 61.33 2C57.3036 1.36653 53.2358 1.03228 49.16 0.999997Z" fill="#158FED"/>
</svg>
