<svg width="324" height="196" viewBox="0 0 324 196" fill="none" xmlns="http://www.w3.org/2000/svg">
<path d="M162 196C72.67 196 0 125.42 0 38.67C0 28 1.08 19.8 3.3 13.69C5.4 7.91001 8.5 4.07001 12.76 2.00001C16.63 1.35899e-05 21.51 -0.469986 27.68 0.430014C32.92 1.20001 39.21 3.00001 47.45 6.00001C53.57 8.27001 60.21 11 67.23 13.93L71.42 15.67C79.48 19 88.92 22.85 98.94 26.36C122.74 34.72 142.78 38.6 162 38.6C181.22 38.6 201.27 34.72 225.07 26.39C235.07 22.88 244.53 19.03 252.58 15.7L256.76 14C263.76 11.08 270.42 8.33001 276.56 6.06001C284.8 3.00001 291.08 1.20001 296.33 0.430014C302.49 -0.469986 307.33 0.0300137 311.24 1.95001C315.51 4.07001 318.6 7.95001 320.7 13.69C322.92 19.8 324 27.97 324 38.69C324 125.42 251.33 196 162 196ZM22.14 10.83C20.633 10.7654 19.1304 11.0352 17.74 11.62C17.15 11.92 15.33 12.82 13.74 17.33C11.93 22.18 11 29.36 11 38.67C11 119.45 78.72 185.16 162 185.16C245.28 185.16 313 119.45 313 38.67C313 29.36 312.1 22.18 310.34 17.33C308.7 12.82 306.89 11.92 306.29 11.62C304.58 10.77 301.7 10.62 297.98 11.15C293.53 11.8 287.98 13.39 280.48 16.15C274.54 18.35 268.01 21.07 261.09 23.94L256.89 25.67C248.7 29.06 239.1 32.98 228.8 36.58C203.8 45.34 182.56 49.43 162.03 49.43C141.5 49.43 120.29 45.34 95.26 36.58C84.94 33 75.33 29.07 67.14 25.68L63 24C56.07 21.12 49.53 18.41 43.6 16.21C36.12 13.44 30.6 11.85 26.11 11.21C24.7976 10.9874 23.4708 10.8604 22.14 10.83Z" fill="#158FED"/>
</svg>
